<?xml version="1.0" encoding="UTF-8" standalone="no"?>
<!-- Created with Inkscape (http://www.inkscape.org/) -->

<svg
   width="200"
   height="200"
   viewBox="0 0 200 200"
   version="1.1"
   id="svg1"
   inkscape:version="1.4.2 (f4327f4, 2025-05-13)"
   sodipodi:docname="sai - Copy.svg"
   inkscape:export-filename="sai1.png"
   inkscape:export-xdpi="96"
   inkscape:export-ydpi="96"
   xml:space="preserve"
   xmlns:inkscape="http://www.inkscape.org/namespaces/inkscape"
   xmlns:sodipodi="http://sodipodi.sourceforge.net/DTD/sodipodi-0.dtd"
   xmlns:xlink="http://www.w3.org/1999/xlink"
   xmlns="http://www.w3.org/2000/svg"
   xmlns:svg="http://www.w3.org/2000/svg"><sodipodi:namedview
     id="namedview1"
     pagecolor="#ffffff"
     bordercolor="#000000"
     borderopacity="0.25"
     inkscape:showpageshadow="2"
     inkscape:pageopacity="0.0"
     inkscape:pagecheckerboard="0"
     inkscape:deskcolor="#d1d1d1"
     inkscape:document-units="px"
     inkscape:zoom="1.9825397"
     inkscape:cx="428.99519"
     inkscape:cy="285.24019"
     inkscape:window-width="2880"
     inkscape:window-height="1514"
     inkscape:window-x="3829"
     inkscape:window-y="-11"
     inkscape:window-maximized="1"
     inkscape:current-layer="g6"
     showguides="true" /><defs
     id="defs1"><rect
       x="1033.0184"
       y="436.81345"
       width="18.158527"
       height="211.84949"
       id="rect2" /><rect
       x="417.64612"
       y="169.47958"
       width="800.9928"
       height="298.6069"
       id="rect1" /><clipPath
       clipPathUnits="userSpaceOnUse"
       id="clipPath21"><path
         d="M 0,595.276 H 841.89 V 0 H 0 Z"
         transform="translate(-441.17871,-306.46431)"
         id="path21" /></clipPath><clipPath
       clipPathUnits="userSpaceOnUse"
       id="clipPath19"><path
         d="M 0,595.276 H 841.89 V 0 H 0 Z"
         transform="translate(-408.49901,-320.08351)"
         id="path19" /></clipPath><clipPath
       clipPathUnits="userSpaceOnUse"
       id="clipPath17"><path
         d="M 0,595.276 H 841.89 V 0 H 0 Z"
         transform="translate(-493.87301,-318.69091)"
         id="path17" /></clipPath><clipPath
       clipPathUnits="userSpaceOnUse"
       id="clipPath15"><path
         d="M 0,595.276 H 841.89 V 0 H 0 Z"
         transform="translate(-479.75681,-329.77491)"
         id="path15" /></clipPath><clipPath
       clipPathUnits="userSpaceOnUse"
       id="clipPath13"><path
         d="M 0,595.276 H 841.89 V 0 H 0 Z"
         transform="translate(-493.36131,-234.18991)"
         id="path13" /></clipPath><clipPath
       clipPathUnits="userSpaceOnUse"
       id="clipPath11"><path
         d="M 0,595.276 H 841.89 V 0 H 0 Z"
         id="path11" /></clipPath><clipPath
       clipPathUnits="userSpaceOnUse"
       id="clipPath9"><path
         d="M 0,595.276 H 841.89 V 0 H 0 Z"
         transform="translate(-402.39501,-213.479)"
         id="path9" /></clipPath><clipPath
       clipPathUnits="userSpaceOnUse"
       id="clipPath7"><path
         d="M 0,595.276 H 841.89 V 0 H 0 Z"
         transform="translate(-366.66021,-241.3862)"
         id="path7" /></clipPath><clipPath
       clipPathUnits="userSpaceOnUse"
       id="clipPath5"><path
         d="M 0,595.276 H 841.89 V 0 H 0 Z"
         id="path5" /></clipPath><clipPath
       clipPathUnits="userSpaceOnUse"
       id="clipPath3"><path
         d="M 0,595.276 H 841.89 V 0 H 0 Z"
         transform="translate(-501.53122,-250.4858)"
         id="path3" /></clipPath><rect
       x="417.64612"
       y="169.47958"
       width="513.45074"
       height="152.32433"
       id="rect1-2" /><rect
       x="417.64612"
       y="169.47958"
       width="410.04233"
       height="75.683113"
       id="rect1-2-1" /><rect
       x="417.64612"
       y="169.47958"
       width="544.24506"
       height="72.765984"
       id="rect1-2-1-1" /><clipPath
       clipPathUnits="userSpaceOnUse"
       id="clipPath3-3"><path
         d="M 0,595.276 H 841.89 V 0 H 0 Z"
         transform="translate(-501.53122,-250.4858)"
         id="path3-4" /></clipPath><clipPath
       clipPathUnits="userSpaceOnUse"
       id="clipPath5-4"><path
         d="M 0,595.276 H 841.89 V 0 H 0 Z"
         id="path5-6" /></clipPath><clipPath
       clipPathUnits="userSpaceOnUse"
       id="clipPath7-0"><path
         d="M 0,595.276 H 841.89 V 0 H 0 Z"
         transform="translate(-366.66021,-241.3862)"
         id="path7-6" /></clipPath><clipPath
       clipPathUnits="userSpaceOnUse"
       id="clipPath9-6"><path
         d="M 0,595.276 H 841.89 V 0 H 0 Z"
         transform="translate(-402.39501,-213.479)"
         id="path9-1" /></clipPath><clipPath
       clipPathUnits="userSpaceOnUse"
       id="clipPath11-8"><path
         d="M 0,595.276 H 841.89 V 0 H 0 Z"
         id="path11-4" /></clipPath><clipPath
       clipPathUnits="userSpaceOnUse"
       id="clipPath13-9"><path
         d="M 0,595.276 H 841.89 V 0 H 0 Z"
         transform="translate(-493.36131,-234.18991)"
         id="path13-6" /></clipPath><clipPath
       clipPathUnits="userSpaceOnUse"
       id="clipPath15-3"><path
         d="M 0,595.276 H 841.89 V 0 H 0 Z"
         transform="translate(-479.75681,-329.77491)"
         id="path15-7" /></clipPath><clipPath
       clipPathUnits="userSpaceOnUse"
       id="clipPath17-8"><path
         d="M 0,595.276 H 841.89 V 0 H 0 Z"
         transform="translate(-493.87301,-318.69091)"
         id="path17-8" /></clipPath><clipPath
       clipPathUnits="userSpaceOnUse"
       id="clipPath19-2"><path
         d="M 0,595.276 H 841.89 V 0 H 0 Z"
         transform="translate(-408.49901,-320.08351)"
         id="path19-9" /></clipPath><clipPath
       clipPathUnits="userSpaceOnUse"
       id="clipPath21-1"><path
         d="M 0,595.276 H 841.89 V 0 H 0 Z"
         transform="translate(-441.17871,-306.46431)"
         id="path21-3" /></clipPath><rect
       x="417.64612"
       y="169.47958"
       width="1048.6638"
       height="177.13464"
       id="rect1-2-5" /><rect
       x="417.64612"
       y="169.47958"
       width="410.04233"
       height="75.683113"
       id="rect1-2-1-9" /><rect
       x="417.64612"
       y="169.47958"
       width="544.24506"
       height="72.765984"
       id="rect1-2-1-1-8" /><clipPath
       clipPathUnits="userSpaceOnUse"
       id="clipPath3-3-2"><path
         d="M 0,595.276 H 841.89 V 0 H 0 Z"
         transform="translate(-501.53122,-250.4858)"
         id="path3-4-0" /></clipPath><clipPath
       clipPathUnits="userSpaceOnUse"
       id="clipPath5-4-9"><path
         d="M 0,595.276 H 841.89 V 0 H 0 Z"
         id="path5-6-7" /></clipPath><clipPath
       clipPathUnits="userSpaceOnUse"
       id="clipPath7-0-3"><path
         d="M 0,595.276 H 841.89 V 0 H 0 Z"
         transform="translate(-366.66021,-241.3862)"
         id="path7-6-7" /></clipPath><clipPath
       clipPathUnits="userSpaceOnUse"
       id="clipPath9-6-2"><path
         d="M 0,595.276 H 841.89 V 0 H 0 Z"
         transform="translate(-402.39501,-213.479)"
         id="path9-1-6" /></clipPath><clipPath
       clipPathUnits="userSpaceOnUse"
       id="clipPath11-8-0"><path
         d="M 0,595.276 H 841.89 V 0 H 0 Z"
         id="path11-4-1" /></clipPath><clipPath
       clipPathUnits="userSpaceOnUse"
       id="clipPath13-9-6"><path
         d="M 0,595.276 H 841.89 V 0 H 0 Z"
         transform="translate(-493.36131,-234.18991)"
         id="path13-6-5" /></clipPath><clipPath
       clipPathUnits="userSpaceOnUse"
       id="clipPath15-3-7"><path
         d="M 0,595.276 H 841.89 V 0 H 0 Z"
         transform="translate(-479.75681,-329.77491)"
         id="path15-7-5" /></clipPath><clipPath
       clipPathUnits="userSpaceOnUse"
       id="clipPath17-8-4"><path
         d="M 0,595.276 H 841.89 V 0 H 0 Z"
         transform="translate(-493.87301,-318.69091)"
         id="path17-8-1" /></clipPath><clipPath
       clipPathUnits="userSpaceOnUse"
       id="clipPath19-2-2"><path
         d="M 0,595.276 H 841.89 V 0 H 0 Z"
         transform="translate(-408.49901,-320.08351)"
         id="path19-9-0" /></clipPath><clipPath
       clipPathUnits="userSpaceOnUse"
       id="clipPath21-1-0"><path
         d="M 0,595.276 H 841.89 V 0 H 0 Z"
         transform="translate(-441.17871,-306.46431)"
         id="path21-3-1" /></clipPath><rect
       x="417.64612"
       y="169.47958"
       width="1048.6638"
       height="177.13464"
       id="rect1-2-5-4" /><rect
       x="417.64612"
       y="169.47958"
       width="386.47165"
       height="70.351051"
       id="rect1-2-1-9-6" /><rect
       x="417.64612"
       y="169.47958"
       width="769.19531"
       height="100.78465"
       id="rect1-2-1-1-8-0" /><rect
       x="417.64612"
       y="169.47958"
       width="330.63937"
       height="253.36081"
       id="rect1-2-5-4-7" /><rect
       x="417.64612"
       y="169.47958"
       width="564.11322"
       height="69.284637"
       id="rect1-2-1-9-6-4" /><rect
       x="417.64612"
       y="169.47958"
       width="769.19531"
       height="100.78465"
       id="rect1-2-1-1-8-0-5" /><rect
       x="417.64612"
       y="169.47958"
       width="564.11322"
       height="69.284637"
       id="rect1-2-1-9-6-4-1" /><rect
       x="417.64612"
       y="169.47958"
       width="386.47165"
       height="70.351051"
       id="rect1-2-1-9-6-7" /><rect
       x="417.64612"
       y="169.47958"
       width="1048.6638"
       height="177.13464"
       id="rect1-2-5-4-1" /><clipPath
       clipPathUnits="userSpaceOnUse"
       id="clipPath3-3-2-1"><path
         d="M 0,595.276 H 841.89 V 0 H 0 Z"
         transform="translate(-501.53122,-250.4858)"
         id="path3-4-0-5" /></clipPath><clipPath
       clipPathUnits="userSpaceOnUse"
       id="clipPath5-4-9-2"><path
         d="M 0,595.276 H 841.89 V 0 H 0 Z"
         id="path5-6-7-7" /></clipPath><clipPath
       clipPathUnits="userSpaceOnUse"
       id="clipPath7-0-3-6"><path
         d="M 0,595.276 H 841.89 V 0 H 0 Z"
         transform="translate(-366.66021,-241.3862)"
         id="path7-6-7-1" /></clipPath><clipPath
       clipPathUnits="userSpaceOnUse"
       id="clipPath9-6-2-4"><path
         d="M 0,595.276 H 841.89 V 0 H 0 Z"
         transform="translate(-402.39501,-213.479)"
         id="path9-1-6-2" /></clipPath><clipPath
       clipPathUnits="userSpaceOnUse"
       id="clipPath11-8-0-3"><path
         d="M 0,595.276 H 841.89 V 0 H 0 Z"
         id="path11-4-1-2" /></clipPath><clipPath
       clipPathUnits="userSpaceOnUse"
       id="clipPath13-9-6-2"><path
         d="M 0,595.276 H 841.89 V 0 H 0 Z"
         transform="translate(-493.36131,-234.18991)"
         id="path13-6-5-1" /></clipPath><clipPath
       clipPathUnits="userSpaceOnUse"
       id="clipPath15-3-7-6"><path
         d="M 0,595.276 H 841.89 V 0 H 0 Z"
         transform="translate(-479.75681,-329.77491)"
         id="path15-7-5-8" /></clipPath><clipPath
       clipPathUnits="userSpaceOnUse"
       id="clipPath17-8-4-5"><path
         d="M 0,595.276 H 841.89 V 0 H 0 Z"
         transform="translate(-493.87301,-318.69091)"
         id="path17-8-1-7" /></clipPath><clipPath
       clipPathUnits="userSpaceOnUse"
       id="clipPath19-2-2-6"><path
         d="M 0,595.276 H 841.89 V 0 H 0 Z"
         transform="translate(-408.49901,-320.08351)"
         id="path19-9-0-1" /></clipPath><clipPath
       clipPathUnits="userSpaceOnUse"
       id="clipPath21-1-0-8"><path
         d="M 0,595.276 H 841.89 V 0 H 0 Z"
         transform="translate(-441.17871,-306.46431)"
         id="path21-3-1-9" /></clipPath><rect
       x="1033.0184"
       y="436.81345"
       width="18.158527"
       height="211.84949"
       id="rect2-2" /><linearGradient
       inkscape:collect="always"
       xlink:href="#linearGradient14"
       id="linearGradient15"
       x1="1469.6794"
       y1="679.42889"
       x2="1923.5793"
       y2="679.42889"
       gradientUnits="userSpaceOnUse"
       gradientTransform="matrix(0.25507711,0,0,0.23147366,505.54646,209.05515)" /><linearGradient
       id="linearGradient14"
       inkscape:collect="always"><stop
         style="stop-color:#145886;stop-opacity:1;"
         offset="0"
         id="stop14" /><stop
         style="stop-color:#55b848;stop-opacity:1;"
         offset="1"
         id="stop15" /></linearGradient></defs><g
     inkscape:label="Layer 1"
     inkscape:groupmode="layer"
     id="layer1"><g
       id="g1"
       transform="translate(-358.1265,-234.04323)"><g
         id="g6"
         transform="translate(-480.19215,-32.281825)"><rect
           style="fill:#145886;stroke:none;stroke-width:4;paint-order:stroke fill markers;fill-opacity:0.08707483"
           id="rect15"
           width="179.56766"
           height="185.6205"
           x="848.53485"
           y="273.5148" /><path
           style="fill:url(#linearGradient15);stroke-width:0.242989"
           d="m 944.55623,447.8468 c -0.089,-0.13122 0.013,-0.17001 0.24,-0.091 0.4419,0.15389 0.5227,0.31978 0.1558,0.31978 -0.132,0 -0.3101,-0.10296 -0.3958,-0.22882 z m -0.2891,-0.56993 c -0.2962,-0.18826 -0.611,-0.29386 -0.6995,-0.23472 -0.089,0.0592 -0.1059,0.0402 -0.038,-0.0423 0.1793,-0.2192 -1.7293,-1.45508 -2.0068,-1.29942 -0.1294,0.0726 -0.1608,0.0226 -0.07,-0.11104 0.1615,-0.2371 -0.5159,-0.6386 -0.9346,-0.55399 -0.1157,0.0234 -0.1411,-0.059 -0.057,-0.1831 0.1889,-0.27746 -0.7354,-0.75976 -1.0159,-0.53002 -0.1111,0.091 -0.1298,0.0506 -0.042,-0.0899 0.1919,-0.30567 -1.9627,-1.76921 -2.2536,-1.5308 -0.1114,0.0912 -0.1273,0.0465 -0.035,-0.0992 0.1607,-0.25523 -0.5006,-0.66348 -0.9332,-0.57608 -0.1156,0.0233 -0.145,-0.0533 -0.065,-0.17047 0.1459,-0.21421 -0.5631,-0.60317 -0.9551,-0.52394 -0.1156,0.0233 -0.1411,-0.059 -0.057,-0.18312 0.189,-0.27747 -0.7354,-0.75977 -1.0158,-0.53003 -0.1111,0.091 -0.13,0.0508 -0.042,-0.0893 0.1708,-0.27202 -2.7876,-2.33591 -3.1933,-2.22782 -0.1314,0.035 -0.1696,-0.038 -0.085,-0.16199 0.1859,-0.27295 -0.7379,-0.76444 -0.9962,-0.53002 -0.1003,0.091 -0.1441,0.0469 -0.097,-0.098 0.1131,-0.35063 -1.8155,-1.73846 -2.153,-1.54922 -0.1485,0.0833 -0.1879,0.0362 -0.09,-0.1075 0.2032,-0.29837 -0.6967,-0.80471 -0.9954,-0.56005 -0.1111,0.091 -0.1229,0.0404 -0.026,-0.11227 0.2009,-0.31778 -0.6839,-0.83606 -0.9939,-0.58215 -0.1111,0.091 -0.1229,0.0404 -0.026,-0.11226 0.2009,-0.31779 -0.6839,-0.83607 -0.9939,-0.58216 -0.1111,0.091 -0.1229,0.0404 -0.026,-0.11227 0.1846,-0.29203 -0.7899,-0.91505 -1.2416,-0.79379 -0.1403,0.0376 -0.1712,-0.008 -0.069,-0.10065 0.2489,-0.22588 -1.6355,-1.48774 -1.9674,-1.31738 -0.1427,0.0733 -0.1742,0.0478 -0.07,-0.0566 0.2052,-0.20548 -0.8193,-0.96214 -1.1651,-0.8605 -0.1157,0.034 -0.1376,-0.0449 -0.049,-0.17541 0.089,-0.13046 0.065,-0.23721 -0.052,-0.23721 -0.1173,0 -0.5723,-0.29753 -1.011,-0.66116 -0.8198,-0.67944 -1.5789,-1.06504 -1.9495,-0.99016 -0.1157,0.0233 -0.1411,-0.059 -0.057,-0.18311 0.1859,-0.27294 -0.7379,-0.76443 -0.9962,-0.53002 -0.1003,0.091 -0.1441,0.0469 -0.097,-0.098 0.1131,-0.35062 -1.8155,-1.73846 -2.153,-1.54921 -0.1452,0.0815 -0.1926,0.0432 -0.1052,-0.0852 0.1958,-0.28755 -1.9739,-1.73912 -2.2551,-1.50869 -0.1113,0.0912 -0.1304,0.0512 -0.042,-0.0889 0.1707,-0.27201 -2.7876,-2.33589 -3.1933,-2.2278 -0.1314,0.035 -0.1765,-0.0278 -0.1004,-0.13963 0.1568,-0.23023 -1.9854,-1.70319 -2.2347,-1.53654 -0.089,0.0594 -0.1096,0.0435 -0.046,-0.0353 0.1901,-0.23605 -1.927,-1.72121 -2.2196,-1.5571 -0.1487,0.0834 -0.1988,0.0466 -0.1114,-0.0817 0.1958,-0.28755 -1.9739,-1.73913 -2.2551,-1.50869 -0.1113,0.0912 -0.1273,0.0465 -0.035,-0.0992 0.1607,-0.25522 -0.5006,-0.66348 -0.9332,-0.57609 -0.1156,0.0234 -0.1411,-0.059 -0.057,-0.1831 0.1582,-0.23233 -0.8437,-0.85317 -1.2187,-0.75521 -0.1157,0.0301 -0.1412,-0.0466 -0.057,-0.17068 0.1859,-0.27296 -0.7379,-0.76444 -0.9963,-0.53003 -0.1002,0.091 -0.144,0.0425 -0.097,-0.1079 0.1088,-0.34959 -1.5649,-1.4945 -1.9055,-1.3035 -0.141,0.0791 -0.1849,0.0389 -0.098,-0.0894 0.1406,-0.20642 -1.904,-1.75083 -2.1505,-1.62443 -0.054,0.0276 -0.071,0.008 -0.037,-0.0433 0.1182,-0.18269 -1.5433,-1.16215 -1.7627,-1.03914 -0.1228,0.0689 -0.1918,0.0205 -0.1532,-0.10743 0.099,-0.33006 -1.6064,-1.43649 -1.9448,-1.2615 -0.1545,0.0798 -0.1963,0.0604 -0.093,-0.0432 0.2458,-0.24642 -1.3342,-1.30294 -1.6683,-1.11555 -0.1412,0.0792 -0.1782,0.0289 -0.082,-0.11182 0.2032,-0.29837 -0.6968,-0.80471 -0.9954,-0.56005 -0.1111,0.091 -0.1269,0.0461 -0.035,-0.0996 0.1701,-0.27012 -0.5151,-0.66423 -0.978,-0.56253 -0.1403,0.0307 -0.1705,-0.0207 -0.067,-0.11445 0.26,-0.23592 -1.3455,-1.27585 -1.6926,-1.09638 -0.1544,0.0798 -0.1962,0.0604 -0.093,-0.0432 0.2458,-0.24642 -1.3342,-1.30294 -1.6683,-1.11555 -0.1453,0.0815 -0.1775,0.0279 -0.074,-0.12342 0.1652,-0.24265 -0.1526,-0.37459 -0.6961,-0.28892 -0.1156,0.0182 -0.1411,-0.0684 -0.057,-0.19245 0.084,-0.12408 -0.079,-0.33866 -0.3636,-0.47683 -0.6978,-0.33891 -0.6512,-0.79652 0.1285,-1.26012 0.3552,-0.2112 0.5763,-0.48617 0.4912,-0.61104 -0.085,-0.12487 -0.06,-0.20232 0.056,-0.17213 0.3751,0.098 1.377,-0.52289 1.2188,-0.75521 -0.085,-0.12407 -0.059,-0.19778 0.057,-0.16379 0.3356,0.0987 1.3745,-0.65269 1.1651,-0.84267 -0.1043,-0.0947 -0.075,-0.1403 0.065,-0.10136 0.4204,0.11662 1.667,-0.75606 1.4874,-1.04127 -0.091,-0.14522 -0.075,-0.18958 0.036,-0.0986 0.2591,0.21225 1.2828,-0.43132 1.2828,-0.80644 0,-0.15668 0.1148,-0.28759 0.2551,-0.29089 0.5174,-0.0122 1.6484,-0.86299 1.4874,-1.11881 -0.091,-0.14521 -0.076,-0.1904 0.034,-0.10042 0.2832,0.23179 1.9522,-0.97424 1.753,-1.26676 -0.091,-0.13281 -0.061,-0.18352 0.066,-0.11271 0.1269,0.0708 0.6899,-0.24075 1.251,-0.69239 0.5612,-0.45162 0.7908,-0.67577 0.5102,-0.49808 -0.4713,0.29844 -0.4831,0.29176 -0.155,-0.0876 0.1954,-0.22586 0.4123,-0.35885 0.4821,-0.29554 0.2397,0.21752 2.1008,-1.29829 1.9289,-1.57097 -0.093,-0.14796 -0.078,-0.19369 0.034,-0.10161 0.2627,0.21548 2.1808,-1.15496 2.104,-1.50326 -0.032,-0.14488 0.06,-0.26816 0.2037,-0.27395 0.4334,-0.0174 2.6597,-1.77066 2.5997,-2.04729 -0.031,-0.14131 0.062,-0.26165 0.2063,-0.26744 0.4126,-0.0166 3.1622,-2.2503 3.1052,-2.52263 -0.028,-0.1345 0.075,-0.24927 0.2299,-0.25505 0.4548,-0.017 3.9367,-2.93486 3.7789,-3.16665 -0.079,-0.11645 -0.043,-0.18309 0.08,-0.14811 0.1235,0.035 1.2512,-0.81442 2.5059,-1.88755 1.2548,-1.07314 1.9944,-1.7502 1.6437,-1.50457 l -0.6377,0.44657 0.4805,-0.51537 c 0.2642,-0.28343 0.5813,-0.45878 0.7046,-0.38964 0.299,0.16772 16.5582,-14.64478 16.4779,-15.01175 -0.034,-0.15753 0.07,-0.26364 0.2321,-0.23581 0.3298,0.0566 4.8002,-4.2675 4.8184,-4.66072 0.01,-0.13795 0.1349,-0.22929 0.2857,-0.20296 0.3093,0.054 3.7775,-3.36341 3.7955,-3.73982 0.01,-0.1337 0.139,-0.22033 0.2947,-0.19253 0.3164,0.0566 2.7546,-2.43707 2.7546,-2.81717 0,-0.1334 0.1257,-0.24255 0.2794,-0.24255 0.4204,0 2.9233,-2.56912 2.7108,-2.7825 -0.1014,-0.10184 -0.063,-0.12287 0.084,-0.0468 0.2775,0.14291 2.2731,-1.81441 2.2937,-2.24967 0.01,-0.13473 0.1456,-0.22021 0.3094,-0.18996 0.3448,0.0637 2.0091,-1.74548 1.9046,-2.07045 -0.038,-0.11988 0.04,-0.15605 0.1752,-0.0804 0.2772,0.15543 1.9737,-1.66616 1.8654,-2.00287 -0.039,-0.11987 0.035,-0.1592 0.1628,-0.0874 0.3023,0.16958 2.1131,-1.8311 1.8744,-2.07108 -0.1,-0.10041 -0.051,-0.1148 0.1089,-0.032 0.3005,0.15578 1.8032,-1.4298 1.6792,-1.77176 -0.038,-0.10494 0.036,-0.132 0.1638,-0.0601 0.2936,0.16466 1.6074,-1.36966 1.3629,-1.59157 -0.099,-0.09 -0.06,-0.12887 0.088,-0.0864 0.3611,0.10386 1.9376,-1.5427 1.7027,-1.77842 -0.102,-0.1024 -0.055,-0.11828 0.1055,-0.0353 0.2819,0.14616 1.2194,-0.88024 1.2329,-1.34974 0,-0.12732 0.1397,-0.23148 0.3023,-0.23148 0.4113,0 1.3864,-1.17004 1.1626,-1.39496 -0.1006,-0.10112 -0.048,-0.11383 0.1164,-0.0283 0.3521,0.18298 1.4335,-1.08492 1.1598,-1.35983 -0.101,-0.10152 -0.053,-0.1167 0.1072,-0.0337 0.2944,0.15265 1.279,-0.9562 1.1624,-1.30908 -0.035,-0.10494 0.042,-0.13187 0.1704,-0.0598 0.2427,0.13612 1.2109,-1.0068 1.1113,-1.31178 -0.031,-0.0955 0.042,-0.14756 0.1637,-0.11573 0.3421,0.0898 2.3255,-2.18983 2.1496,-2.47062 -0.086,-0.13705 -0.062,-0.17174 0.053,-0.0771 0.2265,0.1862 1.0603,-0.74356 0.9483,-1.05737 -0.038,-0.10494 0.037,-0.132 0.1649,-0.0601 0.2497,0.14006 1.5651,-1.28967 1.5651,-1.70114 0,-0.16884 -2.2787,-0.2502 -7.2059,-0.25729 l -7.2059,-0.0104 1.2754,-1.03683 c 0.7014,-0.57026 1.2754,-1.16454 1.2754,-1.3206 0,-0.15607 0.1214,-0.28376 0.2697,-0.28376 0.4202,0 3.1657,-2.25513 3.015,-2.47643 -0.074,-0.10835 -0.034,-0.16837 0.089,-0.13339 0.3037,0.0865 4.4264,-3.30681 4.2796,-3.52238 -0.1247,-0.18304 0.8334,-1.06133 1.1096,-1.01721 0.2768,0.0442 8.4522,-7.13391 8.3297,-7.3137 -0.063,-0.0925 0.1689,-0.40981 0.5153,-0.70513 0.3464,-0.29532 0.6298,-0.45658 0.6298,-0.35835 0,0.0982 1.3488,-0.99231 2.9972,-2.42341 1.6484,-1.43109 2.9739,-2.67639 2.9454,-2.76735 -0.062,-0.19796 1.3373,-1.44765 1.5685,-1.40091 0.2651,0.0536 4.2103,-3.2902 4.0901,-3.46665 -0.061,-0.0894 0.1162,-0.34884 0.3934,-0.57656 0.2774,-0.22771 0.5042,-0.33386 0.5042,-0.23587 0,0.098 0.7748,-0.47956 1.7218,-1.28344 0.947,-0.80388 1.7218,-1.53628 1.7218,-1.62757 0,-0.21173 0.371,-0.55176 0.6021,-0.55176 0.263,0 3.0797,-2.24471 3.0201,-2.40689 -0.028,-0.0766 0.064,-0.17167 0.2039,-0.2112 0.1403,-0.0396 0.5134,-0.29206 0.829,-0.56117 l 0.5739,-0.48928 c -0.1734,45.84864 -0.1071,85.4637 -0.2701,130.63185 0,0.13481 -0.1883,0.12026 -0.088,0.26724 0.1032,0.15141 0.071,0.2049 -0.074,0.12342 -0.2729,-0.15305 -1.9422,0.84915 -1.732,1.03987 0.068,0.0619 -0.019,0.11471 -0.1947,0.11726 -0.4717,0.007 -4.1557,2.38643 -4.0813,2.63616 0.035,0.11773 -0.022,0.20171 -0.1275,0.18664 -0.5348,-0.0766 -0.8397,0.056 -0.6771,0.29465 0.1031,0.1514 0.071,0.20491 -0.074,0.12343 -0.2729,-0.15306 -1.9422,0.84913 -1.732,1.03986 0.068,0.0619 -0.023,0.11262 -0.2026,0.11262 -0.5152,0 -1.7251,0.79938 -1.5652,1.03411 0.079,0.11654 0.05,0.19698 -0.066,0.17875 -0.5435,-0.0857 -0.8613,0.0463 -0.6961,0.28891 0.1032,0.15141 0.071,0.20491 -0.074,0.12343 -0.325,-0.18231 -1.9214,0.86806 -1.6683,1.09773 0.1034,0.0938 0.073,0.14948 -0.067,0.1238 -0.5696,-0.10428 -0.9127,0.0232 -0.7409,0.27536 0.1039,0.15256 0.071,0.20487 -0.077,0.1219 -0.3314,-0.18591 -2.6927,1.32449 -2.4355,1.5579 0.1059,0.0961 0.078,0.15378 -0.062,0.1281 -0.5461,-0.1 -0.9155,0.019 -0.7614,0.24533 0.089,0.13046 0.067,0.21321 -0.048,0.18388 -0.3881,-0.0984 -1.8867,0.75334 -1.7301,0.98334 0.085,0.12505 0.06,0.21244 -0.055,0.19421 -0.5435,-0.0857 -0.8613,0.0463 -0.696,0.28892 0.1038,0.15256 0.071,0.20487 -0.077,0.12189 -0.3408,-0.19114 -2.6855,1.32579 -2.4356,1.57574 0.106,0.10594 0.071,0.12976 -0.078,0.0529 -0.3161,-0.16293 -1.7085,0.60385 -1.5166,0.83515 0.071,0.0859 0.057,0.10778 -0.031,0.0486 -0.2686,-0.17942 -1.1398,0.34588 -0.9749,0.58788 0.085,0.12408 0.059,0.21069 -0.057,0.19246 -0.5435,-0.0856 -0.8614,0.0462 -0.6961,0.28892 0.1031,0.1514 0.071,0.2049 -0.074,0.12343 -0.2729,-0.15306 -1.9422,0.84913 -1.732,1.03986 0.068,0.0619 -0.022,0.11262 -0.1998,0.11262 -0.5155,0 -2.4884,1.26933 -2.3313,1.49999 0.078,0.11493 0.023,0.18033 -0.1243,0.14535 -0.4039,-0.0964 -4.3444,2.43797 -4.1757,2.68561 0.081,0.11866 0.031,0.15102 -0.1095,0.072 -0.2729,-0.15306 -1.9422,0.84915 -1.732,1.03986 0.068,0.0619 -0.023,0.11264 -0.2027,0.11264 -0.5151,0 -1.725,0.79937 -1.5652,1.03411 0.079,0.11653 0.05,0.19697 -0.066,0.17874 -0.5434,-0.0857 -0.8613,0.0462 -0.696,0.28891 0.1031,0.15141 0.071,0.2049 -0.075,0.12343 -0.3341,-0.18739 -1.9141,0.86913 -1.6683,1.11555 0.1034,0.10358 0.061,0.12299 -0.093,0.0432 -0.3565,-0.18432 -1.945,0.86129 -1.6926,1.1142 0.1033,0.10358 0.06,0.12231 -0.096,0.0417 -0.3537,-0.18298 -2.724,1.31687 -2.4599,1.55654 0.1059,0.0961 0.078,0.14224 -0.062,0.10242 -0.4001,-0.11349 -1.9031,0.78708 -1.7323,1.03794 0.084,0.12362 0.038,0.16006 -0.1034,0.0809 -0.325,-0.18231 -1.9213,0.86804 -1.6682,1.09771 0.1033,0.0938 0.073,0.14949 -0.067,0.12379 -0.5461,-0.1 -0.9155,0.0189 -0.7614,0.24535 0.089,0.13045 0.067,0.22227 -0.049,0.20406 -0.483,-0.0762 -0.8691,0.0348 -0.7467,0.21458 0.072,0.10608 -0.01,0.19784 -0.1762,0.20391 -0.1692,0.006 -0.4807,0.0769 -0.6922,0.15753 -0.2115,0.0806 -0.6268,-0.007 -0.923,-0.19573 z m 1.5066,-10.25411 c 1.0453,-0.5374 1.7117,-1.13604 1.5015,-1.3488 -0.093,-0.0947 -0.043,-0.10636 0.1125,-0.0259 0.3565,0.18438 2.9628,-1.55716 2.7099,-1.81076 -0.1026,-0.10296 -0.06,-0.12188 0.094,-0.0421 0.3673,0.18991 1.9373,-0.86277 1.6927,-1.13497 -0.1034,-0.11498 -0.087,-0.13461 0.037,-0.0436 0.3247,0.23893 1.2251,-0.25631 1.0183,-0.56005 -0.096,-0.14144 -0.059,-0.19093 0.084,-0.11079 0.3448,0.1934 2.9242,-1.567 2.6855,-1.83288 -0.1027,-0.11437 -0.085,-0.1335 0.038,-0.0425 0.3366,0.2477 1.2212,-0.25878 1.0168,-0.58215 -0.096,-0.15275 -0.085,-0.20327 0.026,-0.11227 0.2987,0.24466 1.1986,-0.26169 0.9954,-0.56004 -0.096,-0.14144 -0.059,-0.19093 0.084,-0.11079 0.293,0.16431 2.9386,-1.54379 2.7493,-1.77502 -0.068,-0.0825 -0.05,-0.10166 0.038,-0.0425 0.3,0.20039 1.1314,-0.35792 0.953,-0.64002 -0.096,-0.15275 -0.085,-0.20327 0.026,-0.11227 0.2987,0.24467 1.1986,-0.26168 0.9954,-0.56005 -0.096,-0.14143 -0.059,-0.19091 0.084,-0.11078 0.3343,0.18747 2.9318,-1.56523 2.6856,-1.81213 -0.1027,-0.10296 -0.07,-0.12721 0.073,-0.0539 0.3412,0.17518 2.2092,-1.09262 1.9673,-1.33521 -0.1025,-0.10281 -0.059,-0.12115 0.096,-0.0408 0.3565,0.18438 2.9628,-1.55718 2.7099,-1.81078 -0.1027,-0.10296 -0.059,-0.12116 0.097,-0.0404 0.3564,0.1844 5.0019,-2.94684 4.7488,-3.20083 -0.1023,-0.1026 -0.069,-0.12643 0.074,-0.0529 0.3318,0.17042 3.2359,-1.78631 2.9868,-2.01242 -0.1023,-0.0928 -0.058,-0.13407 0.098,-0.0916 0.4353,0.11843 3.4209,-1.92315 3.2381,-2.21427 -0.088,-0.14013 -0.069,-0.18033 0.042,-0.0893 0.2805,0.22974 1.2048,-0.25255 1.0158,-0.53002 -0.084,-0.12408 -0.041,-0.19697 0.097,-0.16199 0.1377,0.035 0.8349,-0.32903 1.5494,-0.80892 l 1.2991,-0.87251 v -41.63601 c 0,-36.60612 -0.046,-41.65193 -0.3788,-41.76788 -0.3699,-0.12882 -1.0731,0.67772 -0.9445,1.08332 0.033,0.10494 -0.045,0.13188 -0.1729,0.0598 -0.2511,-0.14078 -1.2096,1.01221 -1.105,1.32898 0.034,0.10495 -0.067,-0.0439 -0.1789,0.0551 -28.1456,24.90302 -53.1194,48.69085 -90.068,72.9125 -0.2732,0.17909 1.9868,1.56896 2.4678,1.56896 0.1703,0 0.2874,0.0788 0.2601,0.17529 -0.072,0.253 3.1992,2.28728 3.4507,2.1462 0.116,-0.0651 0.1794,-0.0144 0.1409,0.11275 -0.094,0.31012 3.1532,2.35735 3.4633,2.18343 0.1342,-0.0753 0.1657,-0.0219 0.07,0.11875 -0.1792,0.26305 0.6663,0.8104 0.9545,0.61791 0.089,-0.0592 0.1058,-0.04 0.038,0.0425 -0.1951,0.23824 2.4599,1.93598 2.7736,1.77367 0.1555,-0.0804 0.1987,-0.0619 0.096,0.0411 -0.2528,0.2536 2.3535,1.99517 2.7099,1.81079 0.1555,-0.0804 0.1986,-0.0619 0.096,0.041 -0.2461,0.24691 2.3513,1.9996 2.6856,1.81213 0.1428,-0.0802 0.1804,-0.0307 0.084,0.11078 -0.2033,0.29837 0.6967,0.80472 0.9953,0.56006 0.1111,-0.091 0.123,-0.0404 0.026,0.11226 -0.2009,0.31778 0.684,0.83607 0.994,0.58216 0.111,-0.091 0.1229,-0.0404 0.026,0.11226 -0.1784,0.2821 0.6529,0.84042 0.953,0.64002 0.089,-0.0592 0.106,-0.0403 0.039,0.0421 -0.1759,0.21499 3.4647,2.64061 3.7354,2.4888 0.1242,-0.0697 0.1942,-0.0235 0.1557,0.10249 -0.099,0.32324 5.683,4.22281 5.9987,4.04577 0.144,-0.0808 0.182,-0.0318 0.085,0.11012 -0.2033,0.29835 0.6967,0.8047 0.9954,0.56004 0.111,-0.091 0.1268,-0.0462 0.035,0.0996 -0.1608,0.25523 0.5005,0.66348 0.9331,0.57608 0.1157,-0.0233 0.1411,0.059 0.057,0.18312 -0.189,0.27747 0.7354,0.75976 1.0158,0.53002 0.1111,-0.091 0.1269,-0.0462 0.035,0.0996 -0.1607,0.25523 0.5006,0.66349 0.9332,0.57608 0.1156,-0.0233 0.1411,0.059 0.057,0.18312 -0.1648,0.242 0.7063,0.7673 0.975,0.58788 0.089,-0.0592 0.1059,-0.0402 0.038,0.0423 -0.1794,0.21921 1.7292,1.45509 2.0067,1.29944 0.1294,-0.0726 0.1569,-0.0169 0.061,0.12367 -0.2032,0.29836 0.6968,0.80471 0.9954,0.56005 0.1111,-0.091 0.1268,-0.0462 0.035,0.0996 -0.1608,0.25523 0.5006,0.66349 0.9331,0.57609 0.1157,-0.0234 0.1412,0.059 0.057,0.18311 -0.1889,0.27746 0.7355,0.75976 1.0159,0.53002 0.1111,-0.091 0.1268,-0.0462 0.035,0.0996 -0.1608,0.25522 0.5005,0.66349 0.9331,0.57609 0.1157,-0.0233 0.1412,0.059 0.057,0.18311 -0.189,0.27747 0.7354,0.75977 1.0159,0.53002 0.1111,-0.091 0.1229,-0.0404 0.026,0.11226 -0.1978,0.31282 0.6879,0.84204 0.9742,0.58217 0.1003,-0.091 0.1441,-0.044 0.097,0.10456 -0.1033,0.32827 4.6114,3.58925 4.9306,3.41024 0.1244,-0.0698 0.1946,-0.0287 0.156,0.0912 -0.074,0.23148 1.0565,1.18446 1.4211,1.19748 0.1186,0.004 0.5702,-0.17458 1.0036,-0.39737 z m -1.4901,-7.67341 c 0.1577,-0.23163 -0.1708,-0.36041 -0.7047,-0.27625 -0.1157,0.0182 -0.1376,-0.0736 -0.049,-0.20406 0.1541,-0.22628 -0.2153,-0.34531 -0.7614,-0.24533 -0.1403,0.0257 -0.1705,-0.03 -0.067,-0.1238 0.26,-0.23592 -1.3455,-1.27585 -1.6926,-1.09638 -0.1544,0.0798 -0.1962,0.0604 -0.093,-0.0432 0.2523,-0.25292 -1.3361,-1.29853 -1.6926,-1.1142 -0.1545,0.0798 -0.1963,0.0604 -0.093,-0.0432 0.2523,-0.25292 -1.3361,-1.29854 -1.6927,-1.11421 -0.1544,0.0798 -0.1962,0.0604 -0.093,-0.0432 0.2524,-0.25292 -1.3361,-1.29853 -1.6926,-1.1142 -0.1544,0.0798 -0.197,0.061 -0.095,-0.0417 0.253,-0.25385 -3.3727,-2.6904 -3.7291,-2.506 -0.1558,0.0806 -0.2011,0.0639 -0.1006,-0.037 0.1005,-0.10097 -0.1019,-0.38669 -0.4496,-0.63493 l -0.6323,-0.45134 0.01,-16.07818 c 0.01,-8.843 0.1028,-16.0261 0.2163,-15.96245 0.2576,0.14447 4.2676,-2.86558 4.1803,-3.13784 -0.035,-0.10931 0.022,-0.17559 0.1275,-0.14728 0.3622,0.0975 1.5896,-0.79689 1.4251,-1.03845 -0.091,-0.13305 -0.061,-0.18435 0.066,-0.11398 0.1269,0.0704 0.6325,-0.18769 1.1235,-0.57344 0.491,-0.38575 0.7206,-0.61886 0.5101,-0.51801 -0.2263,0.10847 -0.2958,0.0973 -0.17,-0.0273 0.1169,-0.1159 0.289,-0.21216 0.3826,-0.21392 0.3747,-0.007 1.7989,-1.12536 1.6715,-1.31244 -0.075,-0.11023 -0.042,-0.17215 0.074,-0.13761 0.3366,0.10052 2.1331,-1.23858 1.9744,-1.47165 -0.079,-0.1163 -0.049,-0.1832 0.066,-0.14866 0.3085,0.0921 2.1398,-1.22874 1.9961,-1.4397 -0.067,-0.0987 0.049,-0.30821 0.2576,-0.46554 0.2089,-0.15732 0.3798,-0.21423 0.3798,-0.12647 0,0.0877 0.5129,-0.22182 1.1398,-0.68797 0.6269,-0.46616 1.1148,-0.96317 1.0841,-1.10448 -0.031,-0.1413 0.082,-0.26165 0.2513,-0.26744 0.1689,-0.005 0.7763,-0.41409 1.3499,-0.90734 0.5736,-0.49325 1.1146,-0.83179 1.2022,-0.75229 0.088,0.0795 0.079,0.14453 -0.02,0.14453 -0.099,0 -0.05,0.21951 0.1087,0.4878 0.2081,0.35277 0.2105,0.55781 0.01,0.74071 -0.1533,0.13911 -0.2706,0.41438 -0.2608,0.61171 0.013,0.25428 0.082,0.22395 0.2372,-0.10417 0.369,16.76026 0.2432,33.53806 0.255,50.30437 l -0.7511,0.57352 c -0.4131,0.31543 -0.6714,0.64586 -0.574,0.73428 0.097,0.0884 0.062,0.13976 -0.078,0.11408 -0.5067,-0.0928 -0.9201,0.0122 -0.7915,0.20102 0.072,0.10609 -0.01,0.19288 -0.1812,0.19288 -0.5448,0 -2.4695,1.28061 -2.2997,1.53002 0.093,0.13644 0.039,0.16938 -0.1264,0.0768 -0.1591,-0.0892 -0.535,-0.0429 -0.8354,0.10307 -0.3799,0.1845 -0.4935,0.18775 -0.3729,0.0107 z m 5.6766,-4.5903 c -0.065,-0.22521 -0.1218,-0.097 -0.127,0.28493 -0.01,0.38195 0.048,0.5662 0.1176,0.40949 0.07,-0.15671 0.074,-0.4692 0.01,-0.69442 z m 7.6443,-2.76279 c -0.094,-0.0849 -0.1701,-12.35931 -0.1701,-27.27651 v -27.1222 l 4.0175,-3.76459 c 2.2096,-2.07052 4.0192,-3.83208 4.0214,-3.91457 0.01,-0.3154 0.4231,-0.73105 0.6197,-0.62079 0.1132,0.0635 1.1482,-0.8202 2.2999,-1.96374 1.1517,-1.14355 2.0128,-2.07919 1.9135,-2.07919 -0.099,0 -0.039,-0.1551 0.1346,-0.34465 0.1734,-0.18956 0.3966,-0.29902 0.4961,-0.24323 0.1496,0.0839 5.5712,-5.10944 5.4155,-5.54166 -0.047,-0.12979 0,-0.15969 0.1018,-0.0665 0.1027,0.0932 0.457,-0.11511 0.7873,-0.46295 l 0.6006,-0.63243 -0.01,30.61127 c 0,16.83621 -0.089,30.59944 -0.1921,30.58498 -0.5334,-0.0748 -0.8355,0.0579 -0.6735,0.29576 0.1036,0.15219 0.071,0.20489 -0.076,0.1224 -0.2929,-0.16431 -2.9386,1.54379 -2.7493,1.77502 0.068,0.0825 0.05,0.10167 -0.038,0.0425 -0.2881,-0.19248 -1.1336,0.35486 -0.9545,0.61792 0.096,0.14069 0.059,0.19097 -0.082,0.11181 -0.3341,-0.18738 -1.9141,0.86914 -1.6683,1.11556 0.1034,0.10359 0.062,0.123 -0.093,0.0432 -0.3471,-0.17947 -1.9526,0.86045 -1.6926,1.09638 0.1033,0.0938 0.073,0.13794 -0.067,0.0981 -0.4001,-0.11352 -1.9031,0.78708 -1.7323,1.03791 0.084,0.12363 0.038,0.16006 -0.1033,0.081 -0.2935,-0.16459 -1.9207,0.84858 -1.7321,1.07844 0.068,0.0831 0.052,0.1028 -0.037,0.0436 -0.2881,-0.1925 -1.1336,0.35485 -0.9545,0.61792 0.096,0.14068 0.059,0.19096 -0.082,0.1118 -0.3341,-0.18738 -1.9141,0.86914 -1.6682,1.11557 0.1033,0.10357 0.062,0.12299 -0.093,0.0432 -0.3566,-0.18433 -1.945,0.86128 -1.6927,1.1142 0.1033,0.10357 0.062,0.123 -0.093,0.0432 -0.3565,-0.18433 -1.945,0.86128 -1.6926,1.11421 0.1033,0.10357 0.062,0.12299 -0.093,0.0432 -0.3293,-0.17023 -1.9595,0.85425 -1.7139,1.0771 0.092,0.0832 0.1092,0.1512 0.039,0.1512 -0.07,0 -0.2041,-0.0694 -0.2976,-0.15431 z m -33.7132,-5.8634 c 0.1307,-0.19188 -2.243,-1.52099 -2.5503,-1.42803 -0.1403,0.0425 -0.1718,0.002 -0.07,-0.0908 0.2543,-0.2308 -2.121,-1.73388 -2.4621,-1.55795 -0.1506,0.0777 -0.1871,0.0546 -0.081,-0.0513 0.2565,-0.25645 -2.0965,-1.7624 -2.4599,-1.57438 -0.1559,0.0807 -0.1989,0.0619 -0.096,-0.0417 0.2459,-0.24641 -1.3341,-1.30294 -1.6682,-1.11555 -0.1453,0.0815 -0.1776,0.028 -0.074,-0.12342 0.1652,-0.24265 -0.1527,-0.37458 -0.6961,-0.28892 -0.1156,0.0182 -0.1411,-0.0683 -0.057,-0.19245 0.189,-0.27747 -0.7354,-0.75977 -1.0159,-0.53003 -0.1111,0.091 -0.1194,0.0353 -0.018,-0.12387 0.1677,-0.26432 -0.134,-0.39938 -0.6946,-0.31103 -0.1156,0.0182 -0.1411,-0.0684 -0.057,-0.19244 0.189,-0.27747 -0.7353,-0.75977 -1.0158,-0.53002 -0.1111,0.091 -0.1194,0.0353 -0.018,-0.12388 0.1737,-0.2739 -0.1521,-0.40498 -0.7394,-0.29747 -0.1403,0.0257 -0.1705,-0.03 -0.067,-0.12379 0.2531,-0.22966 -1.3432,-1.28004 -1.6683,-1.09773 -0.141,0.0791 -0.1899,0.0462 -0.1087,-0.073 0.081,-0.11928 -0.2454,-0.46129 -0.7258,-0.76002 -0.4804,-0.29874 -0.8735,-0.61144 -0.8735,-0.69489 0,-0.0834 0.3464,-0.3374 0.7697,-0.56435 0.4289,-0.22989 0.6938,-0.52409 0.5983,-0.66435 -0.094,-0.13846 -0.056,-0.18703 0.085,-0.10793 0.3341,0.18739 1.9141,-0.86914 1.6683,-1.11555 -0.1034,-0.10358 -0.062,-0.123 0.093,-0.0432 0.3565,0.18433 1.945,-0.86128 1.6926,-1.11421 -0.1033,-0.10358 -0.062,-0.123 0.093,-0.0432 0.2932,0.15158 1.9732,-0.84176 1.7564,-1.03851 -0.068,-0.0619 0.023,-0.11264 0.2026,-0.11264 0.5489,0 1.7201,-0.80675 1.5448,-1.06413 -0.091,-0.13305 -0.049,-0.17721 0.092,-0.0981 0.2935,0.1646 1.9207,-0.84859 1.732,-1.07845 -0.068,-0.0832 -0.052,-0.10278 0.037,-0.0436 0.2882,0.19247 1.1337,-0.35487 0.9546,-0.61793 -0.096,-0.14069 -0.059,-0.19097 0.082,-0.11181 0.325,0.1823 1.9213,-0.86808 1.6682,-1.09773 -0.1033,-0.0938 -0.073,-0.14529 0.067,-0.11447 0.4488,0.0986 1.1509,-0.28875 0.9795,-0.54041 -0.091,-0.13365 -0.047,-0.1767 0.097,-0.0957 0.1444,0.081 1.018,-0.37164 1.9412,-1.00587 0.9232,-0.63422 1.741,-1.15314 1.8174,-1.15314 0.076,0 0.1388,5.25377 0.1388,11.67504 0,11.3927 -0.012,11.67422 -0.4925,11.64137 -0.2708,-0.0185 -0.4511,-0.0943 -0.4007,-0.16843 z m 54.3282,-37.73082 c 0,-16.74133 0.031,-23.59006 0.067,-15.2194 0.037,8.37068 0.037,22.06813 0,30.43879 -0.037,8.37067 -0.067,1.52194 -0.067,-15.21939 z m -13.1002,-66.83802 c 0.3173,-0.36712 0.3082,-0.37531 -0.096,-0.0874 -0.425,0.30239 -0.5601,0.49248 -0.3501,0.49248 0.053,0 0.2538,-0.1823 0.4463,-0.40508 z m 9.5328,-8.39092 c 0.254,-0.25462 0.4043,-0.46294 0.3342,-0.46294 -0.07,0 -0.3353,0.20832 -0.5893,0.46294 -0.2539,0.25462 -0.4042,0.46295 -0.3341,0.46295 0.07,0 0.3353,-0.20833 0.5892,-0.46295 z m 7.2697,-6.36552 c 0.3295,-0.31827 0.5417,-0.57869 0.4716,-0.57869 -0.07,0 -0.3972,0.26041 -0.7267,0.57869 -0.3295,0.31828 -0.5417,0.57869 -0.4715,0.57869 0.07,0 0.3971,-0.26041 0.7266,-0.57869 z m 5.3892,-4.68735 c 0.3172,-0.36712 0.3082,-0.37531 -0.096,-0.0874 -0.2455,0.17474 -0.4464,0.35701 -0.4464,0.40508 0,0.19052 0.2094,0.0679 0.5427,-0.31768 z"
           id="path12"
           sodipodi:nodetypes="sssscssscssssssssssssssssssscscsssssssssssssssssssssssssssssssssssssssssssssssssssssssssssssssssssssssssssssssssssscsssssssssssssssssssssssssscssssssssssssssscsssssssssssssssssssssscsssssscssssssssssssssssssssssssssssssscssssssssssssssssssscssscsssssssssssssssssssssssssssssssssssscsssssssssscscssssssssssssssssssssssssssssssssssssssssssssssssssssssssssssssccsscssssssssssssssssssssssscssssssssssscssscscsssssssscscsssssssssssssssssssssssssscccscssssssscscscscsssssssssssssssssssssssssssssccssssssssssssssssssssss" /></g></g></g></svg>
